PathFileType	4	(X/Y/Z)	pose_F01_0-97.trc
DataRate	CameraRate	NumFrames	NumMarkers	Units	OrigDataRate	OrigDataStartFrame	OrigNumFrames
60	60	9	21	m	60	72	97
Frame#	Time	CHip			RHip			RKnee			RAnkle			RBigToe			RSmallToe			RHeel			LHip			LKnee			LAnkle			LBigToe			LSmallToe			LHeel			Neck			Nose			RShoulder			RElbow			RWrist			LShoulder			LElbow			LWrist			
		X1	Y1	Z1	X2	Y2	Z2	X3	Y3	Z3	X4	Y4	Z4	X5	Y5	Z5	X6	Y6	Z6	X7	Y7	Z7	X8	Y8	Z8	X9	Y9	Z9	X10	Y10	Z10	X11	Y11	Z11	X12	Y12	Z12	X13	Y13	Z13	X14	Y14	Z14	X15	Y15	Z15	X16	Y16	Z16	X17	Y17	Z17	X18	Y18	Z18	X19	Y19	Z19	X20	Y20	Z20	X21	Y21	Z21	
72	1.2	-0.16101381037052362	1.8450826563819402	-0.5810496841277227	-0.1734360477157694	1.8424268997779911	-0.5369541911657173	-0.17888955124136321	1.727886636121157	-0.5260940313919418	-0.17914754422302673	1.6100472584756722	-0.5043487319330451	-0.17692176892868638	1.589545404333147	-0.5710832587589875	-0.18636886579246187	1.5903336334646947	-0.5354461391285622				-0.14617775134017572	1.846746669150064	-0.6186208225336002	-0.14939831984285323	1.7294579470007385	-0.5888829342929067	-0.15222383516737972	1.6256658748319637	-0.5705769876440845	-0.14878419798717366	1.6064568910639554	-0.6401229226972444	-0.14298355643662303	1.6158491060063853	-0.6433168499185801	-0.15954862335107836	1.6233695005199316	-0.5587144315495881	-1.6492372013083239	1.888850842287005	1.0386379886790853	-0.13865105962664534	2.0421342489972796	-0.6654222708866888	-0.16874547081316033	1.981362349568736	-0.5419683099902414	-0.18484688277349573	1.9115122797277821	-0.527441987045253	-0.1906568756946524	1.853308305564777	-0.5444767411088804	-1.506344956234765	1.8870430784035008	0.8248850309447393	-0.11944765286281644	1.9125947293665237	-0.6704868271615352	-0.12262354783168132	1.8585043455444819	-0.6859825146880347
73	1.2166666666666666	-0.16069598977733704	1.8416682400094082	-0.5809531904995859	-0.17323159641747474	1.8402194546144963	-0.5369276138318049	-0.17662988280569564	1.7260431944260246	-0.5282847328347973	-0.17805484913605074	1.6109484242544037	-0.5056405865884513	-0.17577032772926413	1.588799684727402	-0.5677665009627416	-0.18636886579246187	1.5903336334646947	-0.5354461391285622				-0.14670391326509324	1.8438653957544924	-0.6217554223290354	-0.15119582287863098	1.7300652789658653	-0.5870182291923632	-0.15280299035692033	1.6237532446102385	-0.5740019000694586	-0.14858929992693737	1.605268768647486	-0.6405353564556905	-0.1435930101465458	1.6141813787172155	-0.6467783473169064	-0.16022197342897057	1.6196197894596838	-0.5614588107746241	-1.6459170806703187	1.8885511755317868	1.028559266599429	-0.14083065527189395	2.041811160700947	-0.6630759539298827	-0.17082108792644615	1.979955189183803	-0.5397729511128968	-0.1825054294794699	1.9114158092257563	-0.5271363825819305	-0.1784326360609023	1.8488674774655145	-0.5371532805840956	-1.5045225442655648	1.884813201632582	0.8160631643957045	-0.11919573117695852	1.9079958750774069	-0.6706380618795392	-0.11519355534420485	1.8514521821760876	-0.6979365674627733
74	1.2333333333333334	-0.15858678689114233	1.8487166655981555	-0.5841240639989187	-0.17116834657676863	1.847224111980319	-0.54012185229843	-0.17523480430796726	1.7286787425838486	-0.525995993202236	-0.17805484913605074	1.6109484242544037	-0.5056405865884513	-0.17292791645818562	1.5835732471369117	-0.5619460763811273	-0.18636886579246187	1.5903336334646947	-0.5354461391285622				-0.14237006052670817	1.8493392871001824	-0.6270726782690464	-0.14878289405504055	1.733070197987885	-0.5899808586060671	-0.15444637374620682	1.6241585595445998	-0.5722328764725887	-0.14879571514754147	1.6063079097645765	-0.6405484374097757	-0.1438492336491674	1.6154762998750516	-0.6467516007586281	-0.1620189798879068	1.6205925688624871	-0.5596980494904829	-1.6496417065572702	1.8886405653256777	1.0323431775458434	-0.1429554458626029	2.0419330632061405	-0.6607091757508269	-0.17084561694571265	1.9799194140147223	-0.5397537256387079	-0.17899019730294397	1.9088051084335542	-0.5250258870608033	-0.17769151412777293	1.8487627790142465	-0.5367334126512392	-1.5114465031119542	1.886528419286748	0.823859820032261	-0.11987578266616473	1.908880631608554	-0.6738079638263923	-0.11189764833018893	1.8537403780158928	-0.7092489478657978
75	1.25	-0.15575165255867965	1.8495794895424906	-0.5832573659227694	-0.17019810891297613	1.8493911976409605	-0.5371807570669139	-0.17533259323618408	1.7300166736939524	-0.5257779407186681	-0.17805484913605074	1.6109484242544037	-0.5056405865884513	-0.17292791645818562	1.5835732471369117	-0.5619460763811273	-0.18636886579246187	1.5903336334646947	-0.5354461391285622				-0.13954032248333	1.851046690586092	-0.6264953377605252	-0.15134830908910998	1.7368619914083103	-0.5876501890698952	-0.15274845434447962	1.6234152177137946	-0.573852807961789	-0.14668068617196217	1.60475425426762	-0.6469768146051248	-0.14374857357082582	1.6149744430504935	-0.6468586799952686	-0.16207851683567118	1.6187472453867837	-0.5591245401330444	-1.6511148016903638	1.8865724034353701	1.033499013702071	-0.1450825562526352	2.0422121583827577	-0.6583262027167202	-0.17086341888126122	1.9797441167403118	-0.5396240554317666	-0.17920382753774727	1.9096398552497738	-0.5165742047975784	-0.17386166943291242	1.853575219391044	-0.5331389753868198	-1.5127384214011619	1.884499249820074	0.8246935259096433	-0.1199547915415436	1.9101035825966268	-0.6742117799164362	-0.11032127418716453	1.8513962358335785	-0.7113107716578689
76	1.2666666666666666	-0.15583756595839726	1.844629816921154	-0.5824640440394044	-0.17042684923538534	1.8431331107996265	-0.5361101285380173	-0.17466574589839287	1.7290330093596011	-0.5220506055708461	-0.17805484913605074	1.6109484242544037	-0.5056405865884513	-0.17292791645818562	1.5835732471369117	-0.5619460763811273	-0.18636886579246187	1.5903336334646947	-0.5354461391285622				-0.1395640854561593	1.8450608138457547	-0.6256922391745244	-0.15072316585106985	1.7327054192542433	-0.5838368308804194	-0.15249758388260864	1.6245002630639702	-0.569980954308272	-0.14616227712726684	1.6042566662360198	-0.6430592693819939	-0.14155545861713906	1.6150311510510214	-0.6490127589321246	-0.15909926267926938	1.6187725414444634	-0.5580002499659599	-1.6647827695811714	1.8864421160481364	1.0549117369976992	-0.1450490217644332	2.0434520073287823	-0.6580852551679033	-0.1691076797818889	1.9793391066446433	-0.5331964068970922	-0.17838103196990568	1.9097127565738128	-0.5131802739121365	-0.17419102355590246	1.8544036581351973	-0.524334189141743	-1.5196133661386746	1.886333387467717	0.8325610721225545	-0.11858995409162154	1.9081245752632132	-0.6792848988745818	-0.1102380833701843	1.8519131432971656	-0.7115275386521722
77	1.2833333333333334	-0.15276795393247045	1.8433824122934124	-0.5726220180660624	-0.16725365847774074	1.8423853415126366	-0.5261369769464762	-0.17337178363011022	1.7296122335139674	-0.519028152852138	-0.17805484913605074	1.6109484242544037	-0.5056405865884513	-0.17292791645818562	1.5835732471369117	-0.5619460763811273	-0.18636886579246187	1.5903336334646947	-0.5354461391285622				-0.13826691861475873	1.8438778292450888	-0.6222999845445951	-0.14793545009172315	1.7335052781065015	-0.586748648744486	-0.1520280895190819	1.6243526637581884	-0.5707161731514439	-0.14590449045617204	1.6048059513829263	-0.643822423206402	-0.1415917929461882	1.615004758832459	-0.6490283119071188	-0.16096859856653836	1.6176307245881973	-0.5557410786925695	-1.6784592565963299	1.8865247455938783	1.0764270569745293	-0.1470490404447577	2.0439951547459714	-0.6556654123535544	-0.16817200731619975	1.9789369198877587	-0.5299661815275546	-0.17915680771471573	1.906375548174033	-0.5071527819945327	-0.17753805877217793	1.8446021023204726	-0.5269515377076053	-1.526079209804831	1.888232997903973	0.8398788816674301	-0.11850867998080326	1.9105224554284927	-0.6797052847877648	-0.10813026906075972	1.8554522136384834	-0.7143133122570939
78	1.3	-0.15283096034178484	1.8445541586064067	-0.5727857258634357	-0.16735314912970983	1.8434618422204576	-0.5262802342602545	-0.1713858050120711	1.7316231379524507	-0.512648370558324	-0.17805484913605074	1.6109484242544037	-0.5056405865884513	-0.17292791645818562	1.5835732471369117	-0.5619460763811273	-0.18636886579246187	1.5903336334646947	-0.5354461391285622				-0.13834106009043134	1.845117964902411	-0.6224658536916338	-0.14806728879054912	1.731591840784832	-0.5863869555777869	-0.15191716877850642	1.623912263397096	-0.5706819148887396	-0.1486186996496524	1.6051630842280997	-0.6406850707436589	-0.14363501499370762	1.6145201454631581	-0.6467471149607977	-0.15866593426444747	1.6152206518946708	-0.5491313072818577	-1.6932800474286602	1.8881628015072094	1.0998634830277216	-0.1462510436050295	2.0442932852035938	-0.6525367863070398	-0.1681440848508601	1.9787257794052835	-0.5298356868608832	-0.17822912737488378	1.9090307251643184	-0.5041216041723974	-0.17985574984283073	1.8493723158413338	-0.49869067706363657	-1.5284439452754917	1.8880302386594208	0.8425701045778238	-0.11629873280695625	1.9122155752629262	-0.6820440894594605	-0.10804995766368465	1.8553274625329184	-0.7142647723589328
79	1.3166666666666667	-0.15285026924946485	1.8444648690349432	-0.5726741360798007	-0.16560826762475156	1.8430316875316783	-0.5196098164046989	-0.16868534869578253	1.729156423429804	-0.5020552899207845	-0.17805484913605074	1.6109484242544037	-0.5056405865884513	-0.17292791645818562	1.5835732471369117	-0.5619460763811273	-0.18636886579246187	1.5903336334646947	-0.5354461391285622				-0.13850458480606495	1.8437869051664564	-0.6223747572386067	-0.14827044602237224	1.730598806188211	-0.5859721825857701	-0.15209527049220087	1.6221039307484764	-0.5700304733198569	-0.14643484852439292	1.605078472857507	-0.6428832852983563	-0.14268232045298293	1.6138684551028657	-0.6435489172248712	-0.15949476398453974	1.6134846955078035	-0.543643309740142	-1.7055715809675027	1.888098510489794	1.1199807702013773	-0.14663389961334392	2.0442135076642596	-0.644222492274313	-0.16927049406489084	1.9783346443883971	-0.5243687078892801	-0.17976827330187073	1.906475723056084	-0.4983855190435539	-0.18029744014139515	1.8447329165092918	-0.4949171683676331	-1.5302789923406501	1.88795227212384	0.8444304941956728	-0.11846726098863754	1.9095412085823462	-0.6795172215444014	-0.10785519721598961	1.8488176857921452	-0.7134432489539055
80	1.3333333333333333	-0.15035668084860068	1.8420727134974682	-0.5660504159628192	-0.1658778096429173	1.8411755536660268	-0.5138110676581219	-0.16868534869578253	1.729156423429804	-0.5020552899207845	-0.17805484913605074	1.6109484242544037	-0.5056405865884513	-0.17292791645818562	1.5835732471369117	-0.5619460763811273	-0.18636886579246187	1.5903336334646947	-0.5354461391285622				-0.13614543553874106	1.842494145189805	-0.6159994413351244	-0.14921844646739438	1.7316620941988632	-0.5809031265047583	-0.15210311598682685	1.6221984073717775	-0.5699272337074915	-0.14866017373081392	1.6025248761827589	-0.6403976353497477	-0.14379564237719347	1.612461336434204	-0.6461203439099691	-0.15873409367210725	1.614593469945619	-0.539993958000988	-0.14831988466312487	1.9786117015742406	-0.5856579286132619	-0.14508059448954239	2.0438534167919684	-0.6378470264065372	-0.16932382882559568	1.9776379787094212	-0.5152484393887559	-0.1784060982288659	1.9048345539245441	-0.4856254128821267	-0.1830496308458789	1.841289551652008	-0.4899400999652418	-1.5297486339324364	1.886035048582845	0.8435233315757531	-0.11835826645212337	1.9101172310419172	-0.6794225138903247	-0.11088349978644288	1.8451158921526574	-0.7055348022947893
